<svg xmlns="http://www.w3.org/2000/svg" width="15" height="15" viewBox="0 0 15 15"><defs><style>.a{fill:#fff;}</style></defs><g transform="translate(0 0)"><path class="a" d="M5.963,0H.879A.88.88,0,0,0,0,.879V5.963a.88.88,0,0,0,.879.879H5.963a.88.88,0,0,0,.879-.879V.879A.88.88,0,0,0,5.963,0Z"/><path class="a" d="M30.879,6.842h5.084a.88.88,0,0,0,.879-.879V.879A.88.88,0,0,0,35.963,0H30.879A.88.88,0,0,0,30,.879V5.963A.88.88,0,0,0,30.879,6.842Z" transform="translate(-22.105)"/><path class="a" d="M5.963,30H.879A.88.88,0,0,0,0,30.879v5.084a.88.88,0,0,0,.879.879H5.963a.88.88,0,0,0,.879-.879V30.879A.88.88,0,0,0,5.963,30Z" transform="translate(0 -22.105)"/><path class="a" d="M35.842,32.158H33.211V29.526a.526.526,0,1,0-1.053,0v2.632H29.526a.526.526,0,1,0,0,1.053h2.632v2.632a.526.526,0,0,0,1.053,0V33.211h2.632a.526.526,0,0,0,0-1.053Z" transform="translate(-21.368 -21.368)"/></g></svg>