<svg xmlns="http://www.w3.org/2000/svg" width="15" height="15" viewBox="0 0 15 15"><defs><style>.a{fill:#fff;}</style></defs><g transform="translate(0 0)"><path class="a" d="M14.121,8.562V1.348a.439.439,0,0,0-.439-.439H11.455V.439a.439.439,0,0,0-.879,0V.908H8.818V.439a.439.439,0,1,0-.879,0V.908H6.182V.439a.439.439,0,0,0-.879,0V.908H3.545V.439a.439.439,0,0,0-.879,0V.908H.439A.439.439,0,0,0,0,1.348V12.8a.439.439,0,0,0,.439.439H7.758a3.954,3.954,0,1,0,6.363-4.68ZM2.666,1.787v.439a.439.439,0,0,0,.879,0V1.787H5.3v.439a.439.439,0,0,0,.879,0V1.787H7.939v.439a.439.439,0,1,0,.879,0V1.787h1.758v.439a.439.439,0,0,0,.879,0V1.787h1.787V3.545H.879V1.787ZM.879,12.363V4.424H13.242V7.758A3.95,3.95,0,0,0,7.727,8.895a.437.437,0,0,0-.2-.047H6.65a.439.439,0,0,0,0,.879h.666a3.922,3.922,0,0,0-.2.879H6.65a.439.439,0,0,0,0,.879h.464a3.916,3.916,0,0,0,.2.879Zm10.166,1.758a3.076,3.076,0,1,1,3.076-3.076A3.08,3.08,0,0,1,11.045,14.121Zm0,0"/><path class="a" d="M364.2,303.758h-1.318v-1.318a.439.439,0,1,0-.879,0V304.2a.439.439,0,0,0,.439.439H364.2a.439.439,0,1,0,0-.879Zm0,0" transform="translate(-351.395 -293.152)"/><path class="a" d="M92.318,182h-.879a.439.439,0,1,0,0,.879h.879a.439.439,0,0,0,0-.879Zm0,0" transform="translate(-88.334 -176.668)"/><path class="a" d="M92.318,242h-.879a.439.439,0,1,0,0,.879h.879a.439.439,0,0,0,0-.879Zm0,0" transform="translate(-88.334 -234.91)"/><path class="a" d="M92.318,302h-.879a.439.439,0,1,0,0,.879h.879a.439.439,0,0,0,0-.879Zm0,0" transform="translate(-88.334 -293.152)"/><path class="a" d="M212.439,182.879h.879a.439.439,0,0,0,0-.879h-.879a.439.439,0,0,0,0,.879Zm0,0" transform="translate(-205.789 -176.668)"/><path class="a" d="M212.439,242.879h.879a.439.439,0,0,0,0-.879h-.879a.439.439,0,0,0,0,.879Zm0,0" transform="translate(-205.789 -234.91)"/><path class="a" d="M92.318,362h-.879a.439.439,0,1,0,0,.879h.879a.439.439,0,1,0,0-.879Zm0,0" transform="translate(-88.334 -351.395)"/><path class="a" d="M332.439,182.879h.879a.439.439,0,0,0,0-.879h-.879a.439.439,0,0,0,0,.879Zm0,0" transform="translate(-322.273 -176.668)"/></g></svg>